<?xml version="1.0" encoding="UTF-8" standalone="no"?>
<!-- Svg Vector Icons : http://www.onlinewebfonts.com/icon -->

<svg
   version="1.1"
   x="0px"
   y="0px"
   viewBox="0 0 256 256"
   enable-background="new 0 0 256 256"
   xml:space="preserve"
   id="svg20"
   sodipodi:docname="Ink_drop_outline.svg"
   inkscape:version="1.4.2 (ebf0e940d0, 2025-05-08)"
   inkscape:export-filename="Ink_drop_outline.png"
   inkscape:export-xdpi="45"
   inkscape:export-ydpi="45"
   xmlns:inkscape="http://www.inkscape.org/namespaces/inkscape"
   xmlns:sodipodi="http://sodipodi.sourceforge.net/DTD/sodipodi-0.dtd"
   xmlns:xlink="http://www.w3.org/1999/xlink"
   xmlns="http://www.w3.org/2000/svg"
   xmlns:svg="http://www.w3.org/2000/svg"><defs
   id="defs20"><linearGradient
     id="linearGradient20"
     inkscape:collect="always"><stop
       style="stop-color:#000000;stop-opacity:1;"
       offset="0.24929972"
       id="stop20" /><stop
       style="stop-color:#1e90ff;stop-opacity:1;"
       offset="1"
       id="stop21" /></linearGradient><radialGradient
     inkscape:collect="always"
     xlink:href="#linearGradient20"
     id="radialGradient21"
     cx="127.9"
     cy="127.95"
     fx="127.9"
     fy="127.95"
     r="81.8"
     gradientTransform="matrix(1,0,0,1.440709,0,-56.388722)"
     gradientUnits="userSpaceOnUse" /></defs><sodipodi:namedview
   id="namedview20"
   pagecolor="#505050"
   bordercolor="#eeeeee"
   borderopacity="1"
   inkscape:showpageshadow="0"
   inkscape:pageopacity="0"
   inkscape:pagecheckerboard="0"
   inkscape:deskcolor="#505050"
   inkscape:zoom="3.015625"
   inkscape:cx="128"
   inkscape:cy="128"
   inkscape:window-width="1829"
   inkscape:window-height="978"
   inkscape:window-x="0"
   inkscape:window-y="0"
   inkscape:window-maximized="1"
   inkscape:current-layer="g19" />
<metadata
   id="metadata1"> Svg Vector Icons : http://www.onlinewebfonts.com/icon </metadata>
<g
   id="g20"><g
     id="g19"><g
       id="g3"><g
         id="g2"><path
           fill="#000000"
           d="m 49.6,140.2 c -2.3,7.7 -3.5,15.7 -3.5,23.8 0,11.1 2.2,21.8 6.4,31.9 4.1,9.8 10,18.5 17.5,26 7.5,7.5 16.3,13.4 26,17.5 10.1,4.3 20.8,6.4 31.9,6.4 11.1,0 21.8,-2.2 31.9,-6.4 9.8,-4.1 18.5,-10 26,-17.5 7.5,-7.5 13.4,-16.3 17.5,-26 4.3,-10.1 6.4,-20.8 6.4,-31.9 0,-8.1 -1.2,-16.1 -3.5,-23.8 -1.6,-7.6 -5.8,-18 -13,-32.7 -5.5,-11.1 -12.7,-24.6 -21.5,-40 -7.8,-13.7 -15.4,-26.4 -20.3,-34.6 -2.9,-4.8 -5.2,-8.5 -6.6,-10.8 -0.9,-1.5 -1.5,-2.5 -1.9,-3 -0.2,-0.4 -0.4,-0.7 -0.5,-0.9 -0.1,-0.1 -0.2,-0.3 -0.2,-0.3 -3.1,-4.8 -8.4,-7.7 -14,-7.8 -0.1,0 -0.1,0 -0.2,0 -5.8,0 -11.1,2.9 -14.2,7.8 0,0.1 -0.1,0.2 -0.2,0.3 -0.1,0.2 -0.3,0.5 -0.5,0.8 -0.4,0.6 -1,1.5 -1.9,3 -1.4,2.3 -3.7,6 -6.6,10.8 -5,8.2 -12.5,20.8 -20.3,34.6 -8.8,15.4 -16,28.9 -21.5,40 -7.4,14.7 -11.5,25.2 -13.2,32.8 z M 192.9,164 c 0,35.9 -29.1,64.9 -64.9,64.9 -35.8,0 -65,-29.1 -65,-65 0,-6.8 1.1,-13.4 3,-19.6 C 71,118.1 127.9,27 127.9,27 c 0,0 56.9,91.1 62,117.3 2,6.3 3,12.8 3,19.7 z"
           id="path1"
           style="display:inline;fill:url(#radialGradient21);stroke:#000000;stroke-opacity:1" /></g></g><g
       id="g4" /><g
       id="g5" /><g
       id="g6" /><g
       id="g7" /><g
       id="g8" /><g
       id="g9" /><g
       id="g10" /><g
       id="g11" /><g
       id="g12" /><g
       id="g13" /><g
       id="g14" /><g
       id="g15" /><g
       id="g16" /><g
       id="g17" /><g
       id="g18" /></g></g>
</svg>
